<svg xmlns="http://www.w3.org/2000/svg" viewBox="0 0 400 300" width="400" height="300">

  <rect width="400" height="300" fill="#F2E8D5"/>
  <!-- Parchment texture lines -->
  <line x1="0" y1="0" x2="400" y2="0" stroke="#C4A87C" stroke-width="0.2" opacity="0.08"/><line x1="0" y1="12" x2="400" y2="12" stroke="#C4A87C" stroke-width="0.2" opacity="0.08"/><line x1="0" y1="24" x2="400" y2="24" stroke="#C4A87C" stroke-width="0.2" opacity="0.08"/><line x1="0" y1="36" x2="400" y2="36" stroke="#C4A87C" stroke-width="0.2" opacity="0.08"/><line x1="0" y1="48" x2="400" y2="48" stroke="#C4A87C" stroke-width="0.2" opacity="0.08"/><line x1="0" y1="60" x2="400" y2="60" stroke="#C4A87C" stroke-width="0.2" opacity="0.08"/><line x1="0" y1="72" x2="400" y2="72" stroke="#C4A87C" stroke-width="0.2" opacity="0.08"/><line x1="0" y1="84" x2="400" y2="84" stroke="#C4A87C" stroke-width="0.2" opacity="0.08"/><line x1="0" y1="96" x2="400" y2="96" stroke="#C4A87C" stroke-width="0.2" opacity="0.08"/><line x1="0" y1="108" x2="400" y2="108" stroke="#C4A87C" stroke-width="0.2" opacity="0.08"/><line x1="0" y1="120" x2="400" y2="120" stroke="#C4A87C" stroke-width="0.2" opacity="0.08"/><line x1="0" y1="132" x2="400" y2="132" stroke="#C4A87C" stroke-width="0.2" opacity="0.08"/><line x1="0" y1="144" x2="400" y2="144" stroke="#C4A87C" stroke-width="0.2" opacity="0.08"/><line x1="0" y1="156" x2="400" y2="156" stroke="#C4A87C" stroke-width="0.2" opacity="0.08"/><line x1="0" y1="168" x2="400" y2="168" stroke="#C4A87C" stroke-width="0.2" opacity="0.08"/><line x1="0" y1="180" x2="400" y2="180" stroke="#C4A87C" stroke-width="0.2" opacity="0.08"/><line x1="0" y1="192" x2="400" y2="192" stroke="#C4A87C" stroke-width="0.2" opacity="0.08"/><line x1="0" y1="204" x2="400" y2="204" stroke="#C4A87C" stroke-width="0.2" opacity="0.08"/><line x1="0" y1="216" x2="400" y2="216" stroke="#C4A87C" stroke-width="0.2" opacity="0.08"/><line x1="0" y1="228" x2="400" y2="228" stroke="#C4A87C" stroke-width="0.2" opacity="0.08"/><line x1="0" y1="240" x2="400" y2="240" stroke="#C4A87C" stroke-width="0.2" opacity="0.08"/><line x1="0" y1="252" x2="400" y2="252" stroke="#C4A87C" stroke-width="0.2" opacity="0.08"/><line x1="0" y1="264" x2="400" y2="264" stroke="#C4A87C" stroke-width="0.2" opacity="0.08"/><line x1="0" y1="276" x2="400" y2="276" stroke="#C4A87C" stroke-width="0.2" opacity="0.08"/><line x1="0" y1="288" x2="400" y2="288" stroke="#C4A87C" stroke-width="0.2" opacity="0.08"/>
  <!-- Aged edges -->
  <rect x="5" y="5" width="390" height="290" rx="0" fill="none" stroke="#C4A87C" stroke-width="1.5" opacity="0.2"/>
  <!-- Inner border -->
  <rect x="15" y="15" width="370" height="270" rx="0" fill="none" stroke="#C4A87C" stroke-width="0.5" opacity="0.15"/>
  <!-- Corner ornaments -->
  <path d="M20,30 Q20,20 30,20" fill="none" stroke="#C4A87C" stroke-width="1" opacity="0.3"/>
  <path d="M380,30 Q380,20 370,20" fill="none" stroke="#C4A87C" stroke-width="1" opacity="0.3"/>
  <path d="M20,270 Q20,280 30,280" fill="none" stroke="#C4A87C" stroke-width="1" opacity="0.3"/>
  <path d="M380,270 Q380,280 370,280" fill="none" stroke="#C4A87C" stroke-width="1" opacity="0.3"/>
  <!-- Seal -->
  <circle cx="200" cy="75" r="20" fill="none" stroke="#C4A87C" stroke-width="0.5" opacity="0.2"/>
  <text x="200" y="80" text-anchor="middle" font-family="Georgia,serif" font-size="8" fill="#C4A87C" opacity="0.4">A &amp; F</text>
  <!-- Names -->
  <text x="200" y="130" text-anchor="middle" font-family="Georgia,serif" font-size="20" fill="#6B4226">Ahmed</text>
  <text x="200" y="155" text-anchor="middle" font-family="Georgia,serif" font-size="14" fill="#C4A87C">&amp;</text>
  <text x="200" y="175" text-anchor="middle" font-family="Georgia,serif" font-size="20" fill="#6B4226">Fatima</text>
  <text x="200" y="210" text-anchor="middle" font-family="Georgia,serif" font-size="9" fill="#6B4226" opacity="0.4">15 Juin 2025</text>
</svg>