<svg xmlns="http://www.w3.org/2000/svg" viewBox="0 0 400 560" width="400" height="560">
  <defs>
    <linearGradient id="bg" x1="0" y1="0" x2="0" y2="1">
      <stop offset="0%" stop-color="#F0F5E8"/>
      <stop offset="100%" stop-color="#E0EDD8"/>
    </linearGradient>
  </defs>
  <rect width="400" height="560" fill="url(#bg)"/>

  <!-- Trellis vine border left -->
  <g stroke="#4A6B3A" stroke-width="0.8" fill="none" opacity="0.3">
    <path d="M30 30 Q30 100 30 180 Q30 260 30 340 Q30 420 30 530"/>
    <path d="M30 80 Q50 70 65 85 Q80 100 60 115 Q40 130 30 120"/>
    <path d="M30 180 Q50 168 65 183 Q80 198 60 213 Q40 228 30 218"/>
    <path d="M30 280 Q50 268 65 283 Q80 298 60 313 Q40 328 30 318"/>
    <path d="M30 380 Q50 368 65 383 Q80 398 60 413 Q40 428 30 418"/>
  </g>
  <!-- Right vine -->
  <g stroke="#4A6B3A" stroke-width="0.8" fill="none" opacity="0.3">
    <path d="M370 30 Q370 100 370 180 Q370 260 370 340 Q370 420 370 530"/>
    <path d="M370 80 Q350 70 335 85 Q320 100 340 115 Q360 130 370 120"/>
    <path d="M370 180 Q350 168 335 183 Q320 198 340 213 Q360 228 370 218"/>
    <path d="M370 280 Q350 268 335 283 Q320 298 340 313 Q360 328 370 318"/>
    <path d="M370 380 Q350 368 335 383 Q320 398 340 413 Q360 428 370 418"/>
  </g>

  <!-- Leaf clusters -->
  <g fill="#4A6B3A" opacity="0.2">
    <ellipse cx="60" cy="85" rx="10" ry="6" transform="rotate(-30 60 85)"/>
    <ellipse cx="55" cy="95" rx="8" ry="5" transform="rotate(20 55 95)"/>
    <ellipse cx="340" cy="85" rx="10" ry="6" transform="rotate(30 340 85)"/>
    <ellipse cx="345" cy="95" rx="8" ry="5" transform="rotate(-20 345 95)"/>
  </g>

  <!-- Garden arch top flowers -->
  <g opacity="0.45">
    <circle cx="200" cy="55" r="18" fill="#D4859A" opacity="0.3"/>
    <circle cx="200" cy="55" r="11" fill="#E8A0B0" opacity="0.4"/>
    <circle cx="200" cy="55" r="5" fill="#D4859A" opacity="0.5"/>

    <circle cx="150" cy="75" r="13" fill="#B8D4A0" opacity="0.4"/>
    <circle cx="150" cy="75" r="7" fill="#8AB878" opacity="0.45"/>
    <circle cx="250" cy="75" r="13" fill="#B8D4A0" opacity="0.4"/>
    <circle cx="250" cy="75" r="7" fill="#8AB878" opacity="0.45"/>

    <circle cx="110" cy="105" r="10" fill="#F0D070" opacity="0.4"/>
    <circle cx="110" cy="105" r="5" fill="#D4B040" opacity="0.5"/>
    <circle cx="290" cy="105" r="10" fill="#F0D070" opacity="0.4"/>
    <circle cx="290" cy="105" r="5" fill="#D4B040" opacity="0.5"/>
  </g>
  <!-- Flower stems -->
  <g stroke="#4A6B3A" stroke-width="1.2" fill="none" opacity="0.35">
    <path d="M200 73 Q190 100 175 115"/>
    <path d="M200 73 Q210 100 225 115"/>
    <path d="M150 88 Q140 108 130 120"/>
    <path d="M250 88 Q260 108 270 120"/>
  </g>

  <!-- Rope/arch frame top -->
  <path d="M55 130 Q200 40 345 130" fill="none" stroke="#4A6B3A" stroke-width="1" opacity="0.2"/>

  <!-- Invitation text -->
  <text x="200" y="155" text-anchor="middle" font-family="Georgia,serif" font-size="7.5" fill="#4A6B3A" opacity="0.55" letter-spacing="3">MARIAGE EN JARDIN</text>

  <!-- Names — romantic italic -->
  <text x="200" y="210" text-anchor="middle" font-family="Georgia,serif" font-size="31" fill="#2A4A28" font-weight="300" font-style="italic" opacity="0.85">Meriam</text>
  <text x="200" y="236" text-anchor="middle" font-family="Georgia,serif" font-size="12" fill="#D4859A" opacity="0.7" letter-spacing="4">&amp;</text>
  <text x="200" y="272" text-anchor="middle" font-family="Georgia,serif" font-size="31" fill="#2A4A28" font-weight="300" font-style="italic" opacity="0.85">Amine</text>

  <!-- Flower divider line -->
  <line x1="70" y1="294" x2="155" y2="294" stroke="#4A6B3A" stroke-width="0.6" opacity="0.3"/>
  <circle cx="200" cy="294" r="5" fill="none" stroke="#D4859A" stroke-width="0.8" opacity="0.5"/>
  <circle cx="200" cy="294" r="2.5" fill="#D4859A" opacity="0.4"/>
  <line x1="245" y1="294" x2="330" y2="294" stroke="#4A6B3A" stroke-width="0.6" opacity="0.3"/>

  <!-- Date -->
  <text x="200" y="324" text-anchor="middle" font-family="Georgia,serif" font-size="10.5" fill="#2A4A28" opacity="0.65" letter-spacing="1">Samedi 21 Juin 2025</text>
  <text x="200" y="348" text-anchor="middle" font-family="Georgia,serif" font-size="8.5" fill="#4A6B3A" opacity="0.45">Jardins de Carthage</text>

  <!-- Small flower row -->
  <g opacity="0.35" transform="translate(200,378)">
    <circle cx="-50" cy="0" r="5" fill="#D4859A"/>
    <circle cx="-25" cy="0" r="4" fill="#8AB878"/>
    <circle cx="0" cy="0" r="5" fill="#F0D070"/>
    <circle cx="25" cy="0" r="4" fill="#8AB878"/>
    <circle cx="50" cy="0" r="5" fill="#D4859A"/>
  </g>

  <!-- Countdown green boxes -->
  <g transform="translate(200,430)" opacity="0.75">
    <rect x="-110" y="-20" width="48" height="40" rx="8" fill="#4A6B3A" opacity="0.12"/>
    <rect x="-55" y="-20" width="48" height="40" rx="8" fill="#4A6B3A" opacity="0.12"/>
    <rect x="7" y="-20" width="48" height="40" rx="8" fill="#4A6B3A" opacity="0.12"/>
    <rect x="62" y="-20" width="48" height="40" rx="8" fill="#4A6B3A" opacity="0.12"/>
    <text x="-86" y="6" text-anchor="middle" font-family="Georgia,serif" font-size="15" fill="#2A4A28" opacity="0.8">36</text>
    <text x="-31" y="6" text-anchor="middle" font-family="Georgia,serif" font-size="15" fill="#2A4A28" opacity="0.8">09</text>
    <text x="31" y="6" text-anchor="middle" font-family="Georgia,serif" font-size="15" fill="#2A4A28" opacity="0.8">52</text>
    <text x="86" y="6" text-anchor="middle" font-family="Georgia,serif" font-size="15" fill="#2A4A28" opacity="0.8">17</text>
    <text x="-86" y="19" text-anchor="middle" font-family="sans-serif" font-size="5.5" fill="#4A6B3A" opacity="0.45">JOURS</text>
    <text x="-31" y="19" text-anchor="middle" font-family="sans-serif" font-size="5.5" fill="#4A6B3A" opacity="0.45">HEURES</text>
    <text x="31" y="19" text-anchor="middle" font-family="sans-serif" font-size="5.5" fill="#4A6B3A" opacity="0.45">MIN</text>
    <text x="86" y="19" text-anchor="middle" font-family="sans-serif" font-size="5.5" fill="#4A6B3A" opacity="0.45">SEC</text>
  </g>

  <rect x="130" y="480" width="140" height="32" rx="16" fill="#4A6B3A" opacity="0.8"/>
  <text x="200" y="500" text-anchor="middle" font-family="sans-serif" font-size="9.5" fill="white" letter-spacing="2">RSVP</text>

  <text x="200" y="545" text-anchor="middle" font-family="sans-serif" font-size="6.5" fill="#4A6B3A" opacity="0.3" letter-spacing="2">DAAWA · JARDIN SECRET</text>
</svg>